<?xml version="1.0" encoding="UTF-8"?>
<svg id="Layer_1" data-name="Layer 1" xmlns="http://www.w3.org/2000/svg" version="1.1" viewBox="0 0 859.2 718.6">
  <defs>
    <style>
      .cls-1 {
        fill: #f8b933;
      }

      .cls-1, .cls-2, .cls-3, .cls-4 {
        stroke-width: 0px;
      }

      .cls-2 {
        fill: #dcd9cc;
      }

      .cls-3 {
        fill: #1d2226;
      }

      .cls-4 {
        fill: #cd2929;
      }
    </style>
  </defs>
  <g id="whROpa">
    <g>
      <path class="cls-3" d="M65,298.7c11.6-9,23.2-17.9,34.6-27,12.6-10,24.8-20.4,37.5-30.4,14.2-11.2,28.4-22.4,43.2-32.8,36.9-25.8,74.1-51.2,111.3-76.5,23.3-15.9,46.5-32,70.3-47.1,24.9-15.8,49.9-31.5,75.8-45.5,19-10.3,39.3-18.6,59.6-26.2,19-7.1,38.9-11.1,59.3-11.8,19.1-.7,38.2-2.3,57.2-.8,28.7,2.2,56.6,9,83.2,20.7,30.8,13.5,58.5,31.7,82.2,55.6,21.5,21.7,39.4,46.2,53.2,73.6,12.1,23.9,19.8,49.1,22.9,75.6,2,17.1,3.9,34.3,3.9,51.5,0,28.9-5.8,57.1-14.3,84.8-12.9,42.2-36.2,78-66,109.9-23.5,25.2-48.1,49.4-78.3,66.6-13.4,7.6-28,13-41.6,20.2-29.4,15.5-58,32.5-87.8,47.1-29.1,14.2-58.8,27.4-89.1,38.8-34.3,12.9-69.5,23.4-104.2,35.1-5.3,1.8-10.6,4-15.8,6-.3-.4-.6-.7-.9-1.1,9.7-6,19.2-12.2,29.1-17.9,25.9-15.2,52.5-29.3,77.9-45.4,22-13.9,42.7-29.7,64-44.7,1.2-.8,2.2-1.9,3.1-3.3-53.4,29.1-106,59.8-161.8,84-.5-.7-1-1.3-1.5-2,1.4-1.5,2.6-3.4,4.3-4.6,5.1-3.4,10.3-6.7,15.6-9.8,20.1-11.8,40.2-23.8,60.5-35.3,10.6-6,21.7-11.3,32.6-16.9,2.3-1.2,4.5-2.6,6.7-3.9-.3-.8-.6-1.6-.9-2.4-98.7,31.4-197.5,62.9-297.5,94.8,65.5-37,130.3-72.2,190.4-115.3-.3-.6-.6-1.2-.9-1.8-43.4,21.1-87.2,41.6-130.1,63.5-42.5,21.7-84.8,43.5-129.5,60.4,84.6-50.1,172.7-94.1,254.5-149.7-1.9.4-4,.5-5.8,1.1-50.3,18.6-99.1,40.7-145.5,67.7-18.7,10.8-37.3,21.8-55.8,32.9-5.4,3.3-10.3,7.4-15.5,11-.6.4-1.6.2-2.5.3.4-1.2.4-2.8,1.2-3.6,12.7-14.4,25.1-29.1,38.4-43,9-9.3,19.1-17.5,28.9-26.1,2.4-2.2,5.1-4,6.9-7-65.6,36.6-130.8,73.1-198.2,105.7-.3-.5-.7-1-1-1.5,3.4-2.3,6.5-5,10.1-7,28.1-15.8,56.4-31.1,84.2-47.2,37.9-22,75.5-44.4,113-67,23.6-14.2,46.8-29.1,70.2-43.7,1.1-.7,2.1-1.5,2.8-3.1-2.7,1.2-5.5,2.2-8.2,3.6-34.1,17.9-68.1,35.8-102.2,53.7-48.3,25.3-96.6,50.6-144.9,75.9-7.9,4.1-15.9,8.2-23.8,12.2-.3-.3-.7-.6-1-1,41.2-25.5,82.5-51,123.7-76.5,40.6-25.2,81.3-50.4,121.9-75.7,2.6-1.6,5-3.6,8-5.8-25.5-5.7-224.4,112-282.4,165.8,45.3-68.1,103.6-123.7,166-176.4-1.8.5-3.8.7-5.4,1.6-26.2,15.3-52.3,30.8-78.4,46.2-1.1.7-2.2,2-2.6,3.3-2.7,8.8-11.1,12.6-20,11.1-3.9-.7-8.8,2.2-12.7,4.3-8.9,4.9-17.4,10.3-27,14.1,4.5-2.8,9.1-5.6,13.5-8.6,30.8-20.4,61.4-41.2,92.5-61.3,33.1-21.3,66.8-41.6,99.9-62.9,10.7-6.9,20.3-15.6,30.2-24.4-4.6,2-9.5,3.6-13.9,6-34.1,19.3-68.3,38.4-102.2,58.2-33.5,19.6-66.6,39.9-99.9,59.8-2.4,1.4-4.9,2.8-7.3,4.1h.2c.5-1.2.7-2.9,1.6-3.6,16.1-12,32.1-24.1,48.5-35.6,8.3-5.8,17.2-10.7,25.8-16.1,1-.6,1.8-1.6,2.3-4-7.9,1.5-15.8,3-25.5,4.8,1.8-3.6,2.5-7,4.6-8.8,10.8-9.2,21.7-18.3,33-27,33-25.2,66.1-50.2,99.2-75.2,11.3-8.6,22.9-16.9,34.3-25.4,1.5-1.1,2.8-2.4,3.8-4.1-51.6,23.3-98.1,56.4-150.2,78.5l-1.6-2.5c7.3-5.1,14.7-14.4,22-14.4,11.8,0,15-8.9,22.1-13.4,23.1-14.8,46.1-29.6,68.9-44.7,10.3-6.8,20.2-14,30.2-21.2,1.8-1.3,3-3.6,4.4-5.4-.4-.7-.8-1.3-1.2-2-4.8,1.3-9.8,2.2-14.3,4.1-35.5,14.4-68.9,33-101,53.8-28.6,18.5-56.5,38.2-84.5,57.8-9.7,6.8-18.8,14.6-29.7,23.2,64.3-92.1,150-157.2,243-213.9-1-.7-2-1.4-3.1-2.1,1-2.4,1.3-5.5,3-6.9,6.6-5.5,13.7-10.5,20.7-15.5,2.7-2,5.6-3.7,7.9-6.3-39.4,16.6-73.3,41.5-104.8,70.9-.7-2.5-1.3-4.6-1.8-6.2-23.8,19.9-51.7,33.6-80,48.6.7-2,.9-4.9,2.3-5.9,24-16.7,48.1-33.2,72.3-49.5,1.5-1,3.9-.6,7.5-1,5.4-10.4,11.8-22.8,18.3-35.2l-2.2-1.9c-31.6,33.8-72,54.2-110.7,77.3-.7-.8-1.4-1.6-2.1-2.4,1.8-1.9,3.4-4.2,5.5-5.7,17.6-12.6,35.2-25.1,52.9-37.4,12.4-8.6,24.8-17.4,37.6-25.4,5.9-3.7,12.8-5.9,19.2-9,2.8-1.4,5.8-3,7.8-5.3,13.1-14.8,26-29.8,39-44.7,1-1.1,2-2.3,2.6-3.9-65.6,42.7-131.8,84.2-194.5,131-.3-.3-.6-.6-.9-.9ZM619.5,313.3c-.3.3-.7.7-1,1h-.2c0,0,.1,0,.1,0,.3-.3.7-.7,1-1,.3-.4.7-.7,1-1.1.2-.3.4-.7.6-1-.2.4-.4.7-.6,1.1-.3.4-.7.7-1,1.1ZM303.4,150.3h0c-.4.3-.7.6-1.1,1h0c-.4.3-.7.6-1.1,1h0c-.3.3-.7.7-1,1,0,0,0,0,0,0-2.1,1.7-4.2,3.4-6.3,5.1-10.2,10.6-20.5,21.3-30.7,31.9h0c-.5.2-1,.4-1.5.6-8.8,9.8-17.6,19.6-26.4,29.4l-.2.2v-.3c4.9-4,9.6-8.2,14.5-12,16.6-13,33.1-26.1,49.9-38.7,12.9-9.7,26.3-18.5,39.3-28.2,5.9-4.4,10.7-10.5,16.8-14.6,10.1-6.9,20.7-13,31.3-19,10.5-6,21.3-11.5,32.1-17.1,2.6-1.3,5.5-2.1,10.3-3.8-2.6,3-3.7,4.2-4.8,5.5,2.2.5,4,0,5.6-.7,14.2-6.9,28.2-14.3,42.6-20.7,29.2-13,60.3-19.2,91.5-24.9,6.8-1.2,10.2-3.1,10.9-6.8-12.1.4-24.1.8-36.2,1.2-1.2,0-2.3.1-3.5.2-.7,0-1.4.1-2.1.2-13.1,2-26.3,3.3-39.2,6.2-29.6,6.9-58,17.3-85.1,31.1-38,19.2-73,42.6-104.7,71.2h0c-.4.3-.7.7-1.1,1ZM499.4,400.2c-.3,0-.5.2-.7.4-1.4,1.4-3.1,2.5-4.1,4.2-.8,1.2-1.2,3.2-.7,4.4.4,1,2.5,2,3.6,1.9,9.4-1.4,17.9-4.8,23.3-13.2.5-.8-.9-2.9-1.4-4.4-1.9-.5-4.1-1.9-5.6-1.3-4.3,1.7-8.4,4.2-12.6,6.4l-.8.7-1.1.9h0ZM553.5,84.8c-.5.2-1.1.4-1.6.6-4.3,1.6-8.6,3.3-12.9,4.9-3.4,1.3-6.7,2.7-10.1,3.9-26.2,9.2-50.7,21.9-73.2,37.9-29.8,21.2-58.5,43.9-88.4,64.9-38.5,27-79.4,50.1-120.3,73.3-17.1,9.7-33.4,21.1-49.8,32-7.8,5.2-15.2,11.1-22.7,16.6,0,0,.1.3.1.3-5.9,3.9-11.9,7.9-17.8,11.8-.5.7-.9,1.4-1.5,1.9-10.8,9.1-21.6,18.2-32.3,27.3-1.3,1.1-2.4,2.5-3.6,3.8,10.9-6,21.2-12.5,31.2-19.3,10.3-7,19.9-15,30.5-21.5,11-6.9,22.7-12.8,34.2-18.8,27-14.2,54-28.4,81.2-42.3,23.2-11.9,47.4-22,69.8-35.2,26-15.3,51.7-31.5,75.2-50.4,21.8-17.5,42.5-36.2,66.5-50.8,25.9-15.8,53.8-26.7,82.8-35.3,31.9-9.4,64.3-11.5,97.3-7.3,15.1,4.1,30.1,8.3,45.2,12.4-.7.6-1.5,1.8-2.1,1.7-5-.6-10-1.4-15-2.2-3.5-.6-7.1-1.2-10.6-1.8-28.9-5.2-58.1-4.5-86.3,1.6-49.2,10.7-94.8,30.2-133.8,63.1-10.6,8.9-21.2,17.9-31.8,26.9-6,7.7-12,15.4-18,23.1,19.7-13.2,37.9-27.8,56.7-41.4,19.3-13.9,41.8-20.5,65-25.1-1.5.9-3,1.9-4.5,2.8-.9.3-1.9.4-2.7.9-17.8,11.7-36.4,22.2-53,35.3-34.2,27-67.2,55.4-100.8,83.2-43.1,35.6-89.4,66.6-135.9,97.4-9,5.9-18,11.9-27,17.8-7.9,5.4-15.9,10.6-23.7,16.1-26.2,18.7-52.3,37.5-78.4,56.3,3.2-.4,6-1.6,8.5-3.1,17.5-10.4,35.4-20,52.1-31.4,16.2-11,35.4-16,50.1-30.4,11-10.8,27.2-16.3,41.1-24,31.5-17.5,63.1-34.8,94.6-52.3,17-9.4,34.4-18.3,50.6-28.8,23.2-14.9,45.4-31.4,68.3-46.8,13.6-9.2,27.6-17.8,41.6-26.5,5-3.1,10.3-5.9,15.6-8.3,3.3-1.5,7.1-2,10.7-3,.5,1.1.9,2.2,1.4,3.3-21.7,14.6-43.7,28.9-65.1,44-21.5,15.2-42.3,31.2-64,47.4,3.2-1.2,6.2-1.7,8.5-3.2,21.7-14.3,44.4-27.5,64.8-43.6,23.5-18.5,49-33.6,74.8-48.4,20.4-11.7,40.2-24.5,60.5-36.5,12.8-7.6,25.9-14.6,38.9-21.8,14.3-4.7,28.8-8.7,44.2-7.7-3.2,1-6.3,2.1-9.5,3.1-4.6,1.6-9.1,3.3-13.7,4.9h0c-21.7,8.1-39.7,22.1-56.4,37.3-25.5,23.2-49.5,47.9-74.2,71.9-23.2,22.6-49,41.3-79.9,51.8-30,10.2-60.6,18.8-90.5,29.2-13.3,4.6-25.6,11.7-38.4,17.6-2.9,2.4-6,4.6-8.8,7.2-1.2,1.1-1.5,3.1-2.3,4.7,1.7.5,3.4,1.6,5,1.4,5.2-.9,10.5-1.8,15.5-3.5,24.7-8.4,49.1-17.4,73.9-25.4,9.6-3.1,20-3.9,30-5.8.2.7.4,1.3.5,2-4.4,2.1-8.7,4.2-13.1,6.4-4.5,2.2-8.9,4.4-13.4,6.6-12.9,5.2-26,10.1-38.7,15.7-41.6,18.5-83.2,37.1-124.7,56.1-19.4,8.9-39.3,17.2-56.5,30.3-.3,0-.5.1-.6.5h-.3c-7.3,3.4-14.6,6.7-21.9,10.1.2.4.4.8.5,1.2,7.1-2.6,14.1-5.3,21.2-7.9.8-.1,1.7-.2,2.5-.3l1.5-.2c1.4-.5,2.8-.9,4.2-1.4,20.9-8.4,41.8-16.9,62.6-25.4,0,.5.1,1,.2,1.5-14.2,7.1-28.9,13.5-42.5,21.6-25.9,15.4-51.7,31.1-76.5,48.1-18.1,12.3-34.5,27-51.7,40.6l-.4.3v.5s-.1,0-.1,0c-19.3,17.1-38.6,34.1-58,51.2.5.6,1,1.3,1.5,1.9,18.3-12.8,36.5-25.6,54.8-38.4,1.2-.6,2.5-1,3.6-1.7,23.7-13.8,47.2-28,71.2-41.2,18.1-9.9,36.5-19.4,55.4-27.4,28.3-11.9,57-23.1,86-33.2,31.9-11.1,64.3-20.6,96.4-31,11.2-3.6,22.3-7.8,33.4-11.8-3.4-.6-6.5,0-9.4,1-31.4,10.3-63.1,19.8-95.8,25.1-3.6.6-7.3,0-10.9,0l-.4-2.2c1.9-1,3.7-2.3,5.8-3,18-5.9,36-11.7,54-17.5,22.7-7.3,45.7-14.1,68.1-22.2,16.8-6.1,33-13.7,49.1-21.3,4.3-2,7-7.3,11.2-9.9,15.4-9.4,31.1-18.3,46.6-27.4,1.1-.7,3-1.7,3-2.5-.4-8.4,7.4-9.3,11.9-13.2,4.8-4.2,9.6-3.7,14.4,3,10.8-15.2,21.1-29.5,31.4-44,3.7-5.2,7.3-10.4,10.9-15.6,0,1.1.2,2.4-.2,3.4-4.5,11.3-9,22.6-13.6,33.9-12.1,18.8-23.8,38-36.4,56.5-17.6,25.6-41.1,45.2-66.6,62.4-33.5,22.7-70.8,37.4-108,52.5-27.1,11-54.1,22.4-80.5,35.1-31.3,15.1-60.9,33.2-87.9,55.3-16,12.6-31.9,25.2-47.9,37.8.4.5.7,1,1.1,1.5,11.4-7,22.7-14,34.1-21,17.4-8.5,34.8-17.2,52.4-25.5,38.1-18.1,77.7-32,117.9-44.5,22.6-7,45.5-12.8,67.9-20.2,16-5.3,31.6-12.2,47-19.1,30.8-13.7,56.7-34.8,81.9-56.3,34.4-29.3,62-64.5,81.9-105.1,11.3-23.1,20.1-47.3,30.1-71.1,7.5-25.3,14.1-50.8,16.7-77.3,1.7,6.3,3.4,12.7,5.2,19-.7,12.6,0,25.4-2.3,37.7-8.8,46.6-25.8,90.4-50,131.2-7.3,12.3-15.7,24-23.6,35.9-2.2,2.1-4.5,4.3-6.7,6.4-11.9,11.6-23.2,24-35.9,34.7-15.5,12.9-32.2,24.3-48.4,36.4-4.7,3.5-9.3,7-14,10.5.6.9,1.2,1.9,1.9,2.8,15.1-9.8,30.3-19.6,45.8-29.6.9,2.7,1.3,3.8,1.9,5.6,4.2-2.8,7.8-5.3,11.5-7.8-.3-.5-.6-1-.8-1.5-2.5.8-4.9,1.6-7.4,2.4,3.5-4.1,7.5-7.2,11.9-9.5,3.5-1.8,8-1.9,11.4-3.9,4.7-2.7,9.3-5.9,13.3-9.6,11.8-11.2,24.4-21.9,34.6-34.5,17.1-21,33-43.1,48.7-65.1,7.1-10,13.7-20.6,18.9-31.6,6.9-14.6,12.1-29.9,17.7-44,5.8,12.6,1.1,34.7-10.1,46.7-3.6,3.9-6.9,8.7-8.6,13.7-7.2,21.2-13.8,42.7-20.6,64-9.5,29.8-24.1,57-42.6,82-25.1,33.8-54.1,64-86,91.5-37.4,32.2-76.4,62.1-119.2,86.9-4.2,2.4-8.3,4.9-12.4,7.4.3.6.5,1.1.8,1.7,2-.7,4.2-1.2,6.1-2.2,15.5-7.6,31.1-15,46.5-22.9,6.3-3.2,12.4-7.1,18.1-11.2,3.2-2.3,5.2-6.5,8.6-8.6,31.5-19.7,60.9-42.2,89.7-65.6,32.8-26.6,62.1-56.6,85.1-92,13.4-20.6,25.3-42.5,35.6-64.9,9.9-21.6,17.2-44.4,24.9-66.9,4-11.8,5.7-24.5,10.1-36.2,2.1-5.7,4.3-10.9,3.7-16.9-.8-8.3-1.5-16.5-2.5-24.8-2.3-19.2-7.1-37.8-15.4-55.3,0,0,0,0,0,0-.2-.7-.5-1.5-.7-2.2-5.8-10.3-11.5-20.6-17.2-30.7,12.9,9.1,19,23.8,27.3,36.8,15.6,28.3,23.8,58.8,26.7,91,.8-1.9,1-3.8,1.1-5.7,1.1-21.3-2.6-42.1-9-62.3-3.7-11.4-9.8-21.9-14.8-32.9-.4-1.1-.7-2.2-1.3-3.2-17.2-33.2-40.7-61.1-70.8-83.4-4.1-2.8-8.2-5.6-12.3-8.4-36.8-25.2-77.9-38.1-121.9-41.7-21.4-1.8-43.1-1-64.6.1-10,.5-19.8,4.8-29.7,7.4-6.1,1.6-12.2,3.3-18.3,4.9,15.4-.2,30.4-1.6,45.4-2.7,27.7-2.1,53.5,8.5,80.2,13,23.4,3.9,46.2,11.8,69.2,18-4.2-.7-8.5-1.4-12.7-2.1-20.2-3-40.4-6.4-60.7-8.6-9.5-1-19.4-.5-28.9.8-7.8,1.1-15.2,4.6-22.9,6.6-20.2,5.3-40.6,9.5-60.5,15.5-35.1,10.6-65.7,29.5-91.7,55.4-5.7,6.5-11.3,13-17,19.5,67-57,135.6-67.9,165.3-64.4-1.9,1-3.5,1.9-5.1,2.7-1.1.4-2.2.7-3.3,1.1ZM710.4,394.3h0c-.5,0-1.1,0-1.4.2-16.7,17.2-33.4,34.4-50.1,51.6-.8.5-1.7,1-2.5,1.6-41.8,35.8-93,46.4-145.2,54.6-11.1,1.7-22,4.5-33,6.8-8.9,3.6-17.8,7.2-26.8,10.8.2.4.4.9.6,1.3,13.2-1.4,26.4-2.9,39.6-4.3h13.6c.3,1,.6,1.9.9,2.9-3.5,1.9-6.8,4.7-10.5,5.4-30.3,5.6-58.9,15.3-84.7,32.4-2.4,1.6-4.7,3.3-7.1,5,.3.5.5.9.8,1.4h7c.2.4.3.8.5,1.3-33,19.8-66,39.7-99.4,59.7,1,0,1.7.2,2.3,0,15.4-5.8,30.7-11.6,46-17.5,1-.4,1.6-1.5,2.6-2.2,3.7-2.6,7.1-5.8,11.1-7.7,9.4-4.5,19.1-8.5,28.8-12.5,15.4-6.5,30.6-13.8,46.4-19.3,27.9-9.7,56.2-18.3,84.3-27.6,23.6-7.8,44.3-21.9,67.5-30.5,11.3-4.2,20-12.2,27.3-21.8.9-1.2,3.2-2.6,4.2-2.2,5.9,2.3,9-2.6,12.1-5.3,10.3-8.9,20.9-17.7,29.6-28,11.1-13.1,20.4-27.7,30.5-41.7,1.8-3.1,3.5-6.2,5.3-9.3,2.9-5.1,5.8-10.2,8.7-15.3.2-.4.4-.9.6-1.3-.3.3-.7.7-1,1-2.8,3-5.5,6-8.3,9-.1.5-.2.9-.4,1.4ZM391.8,530.5v.2c-1,2.4-1.8,4.9-2.6,7.3,2.5.7,5.7,2.8,7.4,1.9,7.2-3.6,14-8,20.7-12.4,1.4-1,1.9-3.5,2.8-5.2-2-.5-4-1-5.9-1.4-7.1,2.9-14.2,5.7-21.2,8.6-.3.4-.7.7-1,1.1ZM326.9,183.4c-6.2-1.6-9.9,2.1-13.2,6.4-1.4,2.7-6.6,5.9-.1,8.1,5.8,1.9,14.8-3.1,17.5-8.6,2.4-4.8,1.2-6.8-4.2-6ZM284.3,393.4c-8.2,5.3-16.3,10.5-24.5,15.8.5.8,1,1.6,1.5,2.4,1.9-.9,3.9-1.7,5.7-2.7,7.6-4.1,15.1-8.4,22.7-12.5,9.1-5.6,18.1-11.2,27.2-16.7-.5-.8-.9-1.7-1.4-2.5-10.4,5.4-20.8,10.9-31.2,16.3ZM345.7,269.6c-12-2.5-21.8,1.8-30.1,10.2l-10.4,7.7c-10.3,6.8-20.6,13.5-30.7,20.5-1.2.8-1.1,3.5-1.6,5.3,2,.5,4.3,1.7,6,1.2,3.8-1.1,7.4-2.8,10.9-4.6,8.7-4.4,17.3-8.9,25.8-13.6,8.3-4.6,16.4-9.6,24.5-14.5,2.2-2.4,4.8-4.6,6.5-7.3.6-1-.7-3.3-1.1-5ZM569.7,222.9c-2.4-.7-5.2-2.5-7.3-1.9-11.7,3.1-20.7,10.5-28.9,19-3.5,5.1-6.9,10.3-10.4,15.4.6.6,1.2,1.2,1.8,1.7,2.6-.2,5.3,0,7.7-.8,13.6-4.1,24.4-12.6,33.3-23.3,2.2-2.6,2.6-6.7,3.8-10.2ZM457.5,427.4c-2.4-1.4-4.9-4.1-7.2-3.9-7.4.6-15,1.4-21.8,3.9-9.8,3.6-19,8.8-28.4,13.3-4.3,3.8-8.6,7.5-12.9,11.3.3.9.5,1.8.8,2.6,3.9.4,7.9,1.8,11.6,1.2,18.1-3.3,34.8-10.2,49.8-21,3-2.1,5.5-4.9,8.2-7.4ZM313.1,473c-4.1,2.8-8.6,5.2-12.1,8.6-2.2,2.2-2.9,5.9-4.3,8.9,3.3,1.1,6.6,3.2,9.9,3.1,23.1-.5,35.8-18.5,51.5-32.4-4.4.8-8.8,1.7-13.3,2.5-12.1-2.1-21.9,4-31.8,9.3ZM804.2,389.5c-.5-.3-.9-.6-1.4-.8-9.7,15-19.3,29.9-29,44.9.6.6,1.2,1.1,1.8,1.7,1.5-.4,3.4-.3,4.4-1.3,3.7-3.4,7.6-6.8,10.3-10.9,4.9-7.3,9-15.1,13.5-22.9-1.1-.6-2.1-1.2-3.3-1.8,1.3-3.1,2.4-6,3.5-8.8ZM513.6,380.6c36.1-14.8,70.6-32.3,98.1-60.9-29.1,26.2-62.8,44.8-98.1,60.9ZM711.4,508.9c1.3.5,3.5,2.2,5.2,1.9,8.8-1.5,14.4-7.1,17.3-15.3,1.6-4.5-.5-6.7-5.1-6.6-7,.2-17.4,11-17.5,20ZM382.5,144c-8.2,1-17,11.3-17.1,19.5,10.6,2,18.9-7.2,17.1-19.5ZM839.4,263.3c-.7,0-1.4-.1-2-.2-.1.6-.3,1.1-.4,1.7-1.2,11.2-2.3,22.4-3.6,33.5-.5,4.4-1.6,8.7-1.8,13.1,0,1.5,1.6,3.1,2.5,4.7.9-1.3,2.5-2.6,2.6-4,1.1-16.3,1.9-32.6,2.8-48.9ZM384.4,254.8c6.5-4.5,11.9-8.1,17-12.1.9-.7.9-3,.6-4.4,0-.6-1.9-1.3-2.8-1.3-7.1.4-14.3,8.2-14.8,17.8ZM539.1,548.3c-.3-.9-.7-1.8-1-2.7-13.6,5.4-27.2,10.8-40.8,16.2l.7,1.9c13.7-5.1,27.4-10.3,41.1-15.4ZM307.5,217.6c.3.7.7,1.4,1,2.1,4.9-2.8,9.7-5.5,14.6-8.3-.2-.4-.5-.9-.7-1.3-5,2.5-9.9,5.1-14.9,7.6ZM583,221.5c1.9-2.7,3.4-4.4,4.3-6.4.2-.5-1.6-1.9-2.5-2.9-1.4,1.4-3.3,2.6-4.1,4.3-.4.8,1.2,2.5,2.4,4.9ZM533.7,390.5c1.4,1.3,2.7,2.6,4.1,3.9.9-2.2,1.8-4.5,2.5-6.8,0-.2-2.5-1.6-3-1.3-1.4,1.1-2.5,2.7-3.6,4.1Z"/>
      <path class="cls-3" d="M129,218.7c23-17.7,45.7-35.9,69.2-53,27.2-19.8,54.7-39.2,82.6-57.9,29-19.4,58.8-37.5,87.9-56.7,6.4-4.2,10.9-11.2,16.9-16.1,12.1-9.9,25-18.6,41.2-19.4,2.6-.1,6.6,2.2,7.5,4.4.9,2.3,0,7-2,8.6-6,5.1-12.7,9.5-19.4,13.7-45.8,28.2-91.9,56.1-137.6,84.6-43.1,26.8-85.8,54.3-128.6,81.5-5.7,3.6-11.3,7.4-17,11.1-.2-.2-.4-.5-.7-.7Z"/>
      <path class="cls-3" d="M794.8,495.1c-1.4,3.2-2.7,6.9-4.8,10.3-9.9,15.9-23.6,28.2-38.5,39.1-12.2,9-24.1,18.4-36.8,26.6-14.8,9.5-30.3,18-45.5,26.9-13.3,7.7-26.3,15.7-40,22.6-17.8,9-36.1,17.1-54.2,25.5-1.4.6-3.3.2-4.9.2,1.1-1.5,1.8-3.5,3.2-4.4,14.3-8.4,29-16.2,43-24.9,26.1-16.2,52.4-32,77.5-49.7,14-9.9,25.3-23.5,38.2-34.9,13.5-11.9,27.3-23.3,41.3-34.5,4.1-3.3,9-5.6,13.8-7.7,3.7-1.7,6.8-.5,7.7,5Z"/>
      <path class="cls-3" d="M368.9,716.9c107.6-47.4,212.1-100.6,312.7-161.4.6.7,1.2,1.4,1.8,2.2-5.1,5-9.7,10.5-15.3,14.8-33.6,25.7-70.9,45.5-108.6,64.3-25.3,12.6-50.9,24.5-76.8,35.6-32.4,13.9-65.3,26.6-98,39.9-5.1,2.1-10,4.3-15.1,6.4-.3-.6-.5-1.2-.8-1.7Z"/>
      <path class="cls-4" d="M258.3,717c14.9-16.6,30.4-31.7,49.6-41.9,7.4-3.9,17.2-3.6,25.9-4.7,1.1-.1,3.8,3.7,3.7,5.5-.4,8.4-6,14.2-12.3,18.3-6.8,4.5-14.4,8.1-22.1,10.8-13.9,4.8-28.2,8.6-42.3,12.8-.5.1-1.1-.4-2.5-1Z"/>
      <path class="cls-4" d="M10.5,499.7c5-17,22.5-37.8,43.2-39.4,6.3-.5,9.3,2.9,6.3,8.6-3.2,6.1-7.3,12.4-12.6,16.8-10.3,8.5-23.4,10.5-36.9,14Z"/>
      <path class="cls-4" d="M35.4,353.3c10.5-20.1,23-34.8,44.3-39.4,2.8-.6,8.2-.1,8.5,1,1,3.1.8,7.3-.7,10.1-6.1,11.7-17.6,16.6-29.1,21-7,2.7-14.2,4.5-23.1,7.2Z"/>
      <path class="cls-3" d="M182.3,157.5c-2.4-3.5-.7-6.8,3.1-9.5,13.8-9.8,27.7-19.5,41.5-29.4,4.1-2.9,7.6-6.8,11.9-9,2.5-1.3,6.3,0,9.6.1-.4,2.9.1,6.4-1.3,8.6-2,3-5.2,5.7-8.4,7.5-18.5,10.6-37.2,21-56.4,31.7Z"/>
      <path class="cls-3" d="M408.8,618.3c-1.4,1-2.6,2.4-4.1,3.1-17.8,8.4-35.3,17.3-53.5,24.9-18,7.5-36.5,13.5-53.1,19.5,33.8-19.3,74.2-29,109.4-50,.4.8.8,1.7,1.2,2.5Z"/>
      <path class="cls-3" d="M542.2,662c-2.5,2.2-4.8,4.8-7.6,6.4-6.1,3.3-12.5,6.2-19,8.9-1.6.7-3.8,0-5.8,0,.6-2.1.5-5.1,1.9-6,5.8-3.7,12.1-6.8,18.2-10.1,2-1.1,4-2.6,6.2-3,1.8-.3,3.8.8,5.8,1.2.1.9.2,1.7.4,2.6Z"/>
      <path class="cls-4" d="M82.2,446.7c-.7-1-3.2-2.7-3.3-4.6-.4-5.4,7.8-12,14.5-11.5,1.8.1,4.8,2.6,5,4.2.5,5.1-8.3,11.9-16.1,11.9Z"/>
      <path class="cls-3" d="M107.1,201.8c3.4-2.5,6.7-5.2,10.2-7.6,15.1-10.3,30.2-20.6,45.3-30.9,1.3-.9,2.3-2.4,3.7-3.2,1.1-.6,2.7-.6,4-.8-.4,1.7-.2,4.2-1.2,4.8-18.2,11.5-36.5,22.9-54.8,34.2-2.2,1.4-4.5,2.8-6.7,4.1-.2-.2-.4-.4-.6-.7Z"/>
      <path class="cls-4" d="M96.5,666.4c6.3-7.1,12-14.4,22.2-15.3,3.8-.3,4.3,1.5,2.6,4.5-3.4,6.1-17.2,12.3-24.8,10.8Z"/>
      <path class="cls-3" d="M48.2,388.4c-.3-1.8-1.4-4.5-.7-5.2,4-3.8,8.4-7.2,12.8-10.5.3-.2,2.4,2.2,3.7,3.3-4.4,4.4-8.8,8.8-13.2,13.2-.9-.3-1.7-.6-2.6-.8Z"/>
      <path class="cls-3" d="M256.4,684.7c-4.2,2.8-6.7,5.2-9.8,6.3-2.8,1-6.6,5.7-8.8.4-.6-1.5,3.5-5.5,6-7.7,1.6-1.4,4.1-2.3,6.3-2.4,1.6,0,3.2,1.6,6.3,3.4Z"/>
      <path class="cls-3" d="M113,226.3c1.4-2.6,2.7-7.4,4.3-7.5,6.6-.5,4.8,2.8,1.6,5.6-1.3,1.1-3.1,1.8-4.6,2.6-.4-.2-.8-.5-1.2-.7Z"/>
      <path class="cls-3" d="M107.7,202.4l-3.5,2.1c-.2-.4-.4-.7-.6-1.1,1.2-.6,2.3-1.1,3.5-1.7.2.2.4.4.6.7Z"/>
      <path class="cls-3" d="M129.7,219.4c-.2.6-.4,1.1-.6,1.7-.3-.1-.8-.3-.8-.4.2-.7.5-1.4.8-2,.2.2.5.5.7.7Z"/>
      <path class="cls-3" d="M29.9,649.5c-1,.3-1.9.5-2.9.8,0-.2-.1-.4-.2-.6.7-.4,1.4-.8,2.1-1.2.3.3.7.6,1,1Z"/>
      <path class="cls-3" d="M65.9,299.6c-.7.2-1.3.5-3.5,1.2,1.7-1.4,2.1-1.8,2.6-2.2.3.3.6.6.9.9Z"/>
      <path class="cls-3" d="M32.7,531.6v-.3c0,0,.2.2.2.2,0,0-.2,0-.2,0Z"/>
      <path class="cls-3" d="M362,685.9c-.5,0-1.1,0-1.6,0l.7-1c.3.4.6.7.9,1.1Z"/>
      <path class="cls-1" d="M303.5,419.9c0-.5-.1-1-.2-1.5,2.4-1.7,4.7-3.7,7.3-4.9,26.5-12.2,52.8-24.8,79.6-36.2,28.6-12.1,57.4-23.6,83.5-40.7,1.8-1.2,3.5-2.6,5.3-3.9-.3-.3-.5-.6-.8-.8-8.3,2.7-16.6,5.3-24.8,8,4.5-2.2,8.9-4.4,13.4-6.6,4.4-2.1,8.7-4.2,13.1-6.4-.2-.7-.4-1.3-.5-2-10,1.9-20.4,2.7-30,5.8-24.8,8-49.3,17-73.9,25.4-5,1.7-10.3,2.6-15.5,3.5-1.5.3-3.3-.9-5-1.4.7-1.6,1.1-3.5,2.3-4.7,2.7-2.6,5.8-4.8,8.8-7.2,2.4,0,5,.4,7.3-.3,32.2-9.9,64.3-20,96.5-29.7,7.7-2.3,16.1-4.4,24-3.9,9.6.6,17.8-1.3,25.9-6,40.2-23.1,73.6-53.9,103.4-89.1,12.9-15.3,27.3-29.2,44.4-39.9,1.6-1,3.6-1.5,7.4-3-1.9,2.8-2.5,3.8-3.2,4.7-9,11.7-18,23.4-26.8,35.2-1,1.3-.5,3.6-.7,5.5,1.6-.7,3.5-1.1,4.9-2,8-5.3,15.8-10.9,23.9-16.1,1.2-.7,4.4-.3,5.1.7,4.7,6.9,9.5,4.8,15.4,1.5,15.1-8.4,24-22.8,35-35.1,9.1-10.1,17.8-20.7,27-30.7,2.4-2.6,5.9-4.1,9.6-6.6-22.1-4-41.1,5-61.5,11,1.1-2.2,1.5-3,2-3.9,0,0,0,0,0,0,4.6-1.6,9.1-3.3,13.7-4.9,3.2-1,6.3-2.1,9.5-3.1-15.4-1-29.9,3-44.2,7.7,0-3.9-1.9-5.1-5.5-3.7-3.7,1.4-7.6,2.4-11.1,4.2-30.1,15.3-60.1,30.7-90,46.3-13.3,6.9-26.3,13.7-41.8,15.1-7.9.7-15.9,3.8-23.2,7.1-11.4,5.2-22.3,11.4-33.4,17.2,0,0,0,0,0,0,6.8-6.1,13.6-12.1,20.4-18.3,5.2-4.7,11-8.9,15.1-14.3,3.8-5,5.9-11.3,8.6-17.1.3-.7-.7-2-1.1-3.1,1.5-1.3,2.9-2.7,4.4-4,8.7-7.8,17.3-15.5,26-23.3,1.5-.9,3-1.9,4.5-2.8-23.2,4.6-45.7,11.2-65,25.1-18.9,13.6-37,28.2-56.7,41.4,6-7.7,12-15.4,18-23.1,1.2-.3,2.6-.3,3.6-.9,16.8-11.2,32.9-23.7,50.6-33.3,22.2-12.1,45.6-22.3,68.8-32.4,9-3.9,19.2-5.3,28.8-7.9-6.2,7-13.7,11.7-19,18.2-18,21.6-37.9,41.1-60.1,58.2-1.3,1-2.2,2.4-3.2,3.7,2.3.6,3.8.2,5.1-.6,21.2-12.9,41.9-26.5,63.6-38.5,17.8-9.9,36.5-18.1,54.9-26.9,2.1-1,4.7-.9,7.1-1.3-2.6,3-5.5,4.5-8.2,6.4-2.6,1.9-4.8,4.2-7.1,6.3.3.7.6,1.3.9,2,35.7-26.2,77.7-22.4,118.4-26.8l-5.4-3c0-1.1.2-2.8-.3-3.1-6.2-3.3-12.6-6.3-18.9-9.4-15.1-4.1-30.1-8.3-45.2-12.4,1.1-1.6,2.2-3.2,3.7-5.5-9.5-1.2-18.9-2.1-28.1-3.7-11.9-2.1-24.8,1.2-35.8-6.1,19.1-2.6,37.8,1.5,56.3,5,11.3,2.1,22.3,5.9,33.4,8.9,11.7,3.2,23.4,6.3,35.2,9.5.2-.2.4-.5.7-.7-8.8-6.3-17.6-12.6-26.4-18.9.1-.9.6-2.3.3-2.5-4.8-3.8-10.6-6.7-14.5-11.2-5.9-6.9-13.2-8.8-21.5-9.6-3.3-.3-6.6-1.5-9.9-2.3,1.6-1,3.2-1.9,5.6-3.4-5.6-3.3-10.6-6.3-15.7-9.3,2.4-.3,4.5.2,6.4,1.1,20,10.6,39.9,21.3,59.9,31.9,1.6.8,3.6,1,5.3,1.5,30,22.3,53.6,50.1,70.7,83.4.5,1,.8,2.1,1.3,3.2l-3.9,9.9c-8.3-12.9-14.4-27.6-27.3-36.8,5.6,10.1,11.4,20.4,17.2,30.7.2.7.5,1.5.7,2.2,0,0,0,0,0,0-1.6,5.2-4.3,10.3-4.6,15.5-.3,5.7-3.2,7.8-7.6,9.5-1.2.5-2.4,1-3.6,1.5-.7-7.8-1.4-15.6-2-23.5.4,0,.9,0,1.3.1-1.8,15.2-3.6,30.3-5.5,45.5-2.1-5-2.1-12.2-10.7-10.6-2.4-10.4-4.8-20.8-7.2-31.1-1.7-6.3-3.4-12.7-5.2-19-2.6,26.5-9.2,52-16.7,77.3-1-1.3-2.5-4-3.1-3.8-2.7.8-6.2,1.7-7.4,3.7-16.9,28.6-33.3,57.4-50.1,86-4.7,8-10.3,15.4-15.4,23.1,0,0,0,0,0,0-.3.4-.6.8-1,1.3-1.4,1.9-2.5,3.9-4.1,5.6-14.1,14.5-28.2,29-42.4,43.5-.3.3-.5.5-.8.8-.3.3-.5.6-.8.9l-.2.2c-.2.2-.5.5-.7.7l-.2.3c-.2.3-.5.5-.7.8l-.2.2c-.8.7-1.6,1.3-2.4,2-.4,0-.5.1-.5.5-.4.5-.9,1.1-1.3,1.6-11.7,9.7-23.2,19.9-35.3,29.1-26.7,20.3-57.4,33.2-88.4,45.1-27.6,10.6-55.8,19.6-83.3,30.3-23.2,9-46.1,19-68.6,29.5-25.4,12-50.3,25.1-75.5,37.8.3.7.6,1.3,1,2,.7.3,1.4.5,2.1.8-11.4,7-22.7,14-34.1,21-.4-.5-.7-1-1.1-1.5,16-12.6,31.9-25.2,47.9-37.8.9-.1,2,0,2.7-.4,22.5-12.4,44.5-26.2,67.7-37,34-15.8,69.1-29.3,103.5-44.3,26.1-11.4,52.5-22.6,77.7-35.9,39.4-20.7,72.6-49.8,101.9-83.1,21.8-24.7,38-52.8,47.7-84.4,2.6-8.4,4.8-16.8,7-25.3.3-1.1-1-2.6-1.5-3.9-1.1.8-2.8,1.5-3.1,2.5-4.2,11.5-7.9,23.2-12.4,34.6-2.2,5.4-5.7,10.3-8.8,15.3-.3.5-2,0-3,.1,4.5-11.3,9.1-22.6,13.6-33.9.4-1,.1-2.3.2-3.4.5-1,1-2,1.4-3-2.5.7-4.1,2-5.6,3.5-8.8,8.8-17.3,17.9-26.6,26.2-15.4,13.8-30.8,27.8-47.3,40.2-14.2,10.6-29.9,19.2-45.3,28.2-13.5,7.8-26.9,16.1-41.3,22-26.6,10.9-53.8,20.2-80.7,30.4-22.8,8.6-45.6,17.2-68.2,26.3-14.9,6-29.7,12.6-44.2,19.5-27.3,12.9-54.9,25.3-81.6,39.4-20.5,10.9-39.8,24-59.7,36.1-9.5,5.7-19.3,10.9-28.5,17.1-3.4,2.3-5.6,6.6-8.3,9.9-18.3,12.8-36.5,25.6-54.8,38.4-.5-.6-1-1.3-1.5-1.9,19.3-17.1,38.6-34.1,58-51.2,0,0-.1.1-.2.2.1,0,.2-.1.3-.2,0,0,0-.5,0-.5,0,0,.4-.3.4-.2,4.9-3,9.9-5.9,14.8-9,29.6-19.4,58.6-39.8,89-57.9,29.4-17.4,60.3-32.2,90.5-48.3,13.9-7.4,27.6-15.2,41.4-22.8-7,1.2-13.7,3.1-19.9,6-15.1,7-29.9,14.4-44.9,21.6ZM556.8,306c.5.8,1.1,1.7,1.6,2.5,18.8-8.9,35.6-20.9,51.5-34.2-.4-.6-.8-1.2-1.2-1.8-17.3,11.2-34.6,22.3-52,33.5ZM726,215.5c-1-6.2-3.1-9.1-8.4-8-6.6,1.3-12,11.8-8.9,17.6,1,1.9,6,3.9,6.6,3.2,3.9-3.9,7.2-8.5,10.6-12.8Z"/>
      <path class="cls-4" d="M785.6,186.8c1.2-.5,2.4-1,3.6-1.5,4.4-1.7,7.3-3.8,7.6-9.5.3-5.2,3-10.4,4.6-15.5,8.3,17.5,13.1,36.1,15.4,55.3,1,8.2,1.7,16.5,2.5,24.8.6,6-1.6,11.2-3.7,16.9-4.3,11.7-6,24.4-10.1,36.2-7.7,22.5-15,45.3-24.9,66.9-10.3,22.4-22.2,44.2-35.6,64.9-23,35.4-52.3,65.3-85.1,92-28.8,23.4-58.2,45.9-89.7,65.6-3.3,2.1-5.3,6.3-8.6,8.6-5.8,4.1-11.8,7.9-18.1,11.2-15.4,7.9-31,15.4-46.5,22.9-1.9.9-4,1.5-6.1,2.2-.3-.6-.5-1.1-.8-1.7,4.1-2.5,8.3-5,12.4-7.4,42.8-24.8,81.8-54.7,119.2-86.9,31.9-27.5,60.9-57.7,86-91.5,18.5-25,33.1-52.2,42.6-82,6.8-21.4,13.4-42.8,20.6-64,1.7-5,5-9.8,8.6-13.7,11.2-12,15.9-34.1,10.1-46.7-5.6,14.1-10.8,29.4-17.7,44-5.2,11.1-11.8,21.7-18.9,31.6-15.8,22-31.6,44.1-48.7,65.1-10.2,12.5-22.8,23.2-34.6,34.5-3.9,3.7-8.5,7-13.3,9.6-3.4,1.9-7.9,2.1-11.4,3.9-4.4,2.3-8.4,5.4-11.9,9.5,2.5-.8,4.9-1.6,7.4-2.4.3.5.6,1,.8,1.5-3.6,2.5-7.3,4.9-11.5,7.8-.6-1.8-1-2.9-1.9-5.6-15.5,10-30.6,19.8-45.8,29.6-.6-.9-1.2-1.9-1.9-2.8,4.7-3.5,9.3-7,14-10.5,16.2-12.1,32.9-23.5,48.4-36.4,12.7-10.6,24-23.1,35.9-34.7,2.2-2.2,4.5-4.3,6.7-6.4,1.3-.8,2.9-1.3,4-2.4,19.1-20.6,34-44.1,46.9-68.8,16.8-32.1,27.5-66.4,32.3-102.5,8.6-1.6,8.7,5.6,10.7,10.6,0,2.1,0,4.2-.1,6.3,0,.1-.3.2-.2.3,0,.3.2.5.3.7,0,1.5.6,3.2.1,4.5-2.1,5.6-4.4,11.1-6.7,16.6.9.3,1.8.6,2.7.9,8.1-16.1,10.1-33.6,10.2-51.4ZM770.9,334.7s0,0,0,0c-4.2,11.7-8,23.5-12.8,34.9-4.8,11.5-10.2,22.7-16.1,33.6-5.7,10.6-12.4,20.8-18.6,31.1,24.8-32.3,43.6-67.5,52.7-107.4.4-3.2.8-6.4,1.3-9.6-.3,0-.5,0-.8-.1-1.6,5-3.1,10.1-4.7,15.1-.3.8-.7,1.5-1,2.3Z"/>
      <path class="cls-4" d="M522.5,171.6c.4,1,1.4,2.4,1.1,3.1-2.6,5.8-4.7,12.1-8.6,17.1-4.2,5.4-10,9.6-15.1,14.3-6.8,6.1-13.6,12.2-20.4,18.3-.3.3-.7.7-1,1-.7.7-1.3,1.3-2,2,0,0-.1.1-.1.1,0,0,.1-.1.1-.1.7-.7,1.3-1.3,2-2,.3-.3.7-.7,1-1,11.1-5.8,22-12.1,33.4-17.2,7.3-3.3,15.3-6.4,23.2-7.1,15.5-1.3,28.5-8.1,41.8-15.1,29.9-15.6,60-31,90-46.3,3.5-1.8,7.4-2.8,11.1-4.2,3.6-1.4,5.4-.2,5.5,3.7-13,7.3-26.1,14.3-38.9,21.8-20.3,12-40.1,24.8-60.5,36.5-25.8,14.8-51.2,29.8-74.8,48.4-20.4,16.1-43,29.3-64.8,43.6-2.3,1.5-5.3,2-8.5,3.2,21.7-16.1,42.5-32.2,64-47.4,21.4-15.1,43.4-29.4,65.1-44-.5-1.1-.9-2.2-1.4-3.3-3.6,1-7.3,1.5-10.7,3-5.4,2.4-10.6,5.2-15.6,8.3-14,8.7-28,17.3-41.6,26.5-22.9,15.4-45.1,31.8-68.3,46.8-16.3,10.5-33.7,19.4-50.6,28.8-31.5,17.5-63.1,34.8-94.6,52.3-13.9,7.7-30.2,13.2-41.1,24-14.7,14.5-33.9,19.5-50.1,30.4-16.8,11.4-34.7,21-52.1,31.4-2.5,1.5-5.3,2.7-8.5,3.1,26.1-18.8,52.2-37.6,78.4-56.3,7.8-5.6,15.8-10.7,23.7-16.1,9.2-5.3,18.4-10.5,27.5-15.8.5-.2,1.1-.5,1.6-.7h.3c0,.1.2-.2.2-.2,18.1-11.3,36.1-22.8,54.4-33.8,39.5-23.8,75.3-52.6,111.5-81,31.5-24.8,62.4-50.5,93.5-75.8Z"/>
      <path class="cls-4" d="M627.8,67.8c11,7.3,23.8,4,35.8,6.1,9.2,1.6,18.6,2.5,28.1,3.7-1.6,2.3-2.7,3.9-3.7,5.5-32.9-4.1-65.3-2.1-97.3,7.3-29,8.6-56.9,19.5-82.8,35.3-24,14.6-44.7,33.2-66.5,50.8-23.4,18.9-49.2,35.1-75.2,50.4-22.4,13.2-46.6,23.3-69.8,35.2-27.2,13.9-54.2,28.1-81.2,42.3-11.5,6.1-23.2,11.9-34.2,18.8-10.5,6.6-20.2,14.5-30.5,21.5-10,6.9-20.3,13.3-31.2,19.3,1.2-1.3,2.3-2.7,3.6-3.8,10.8-9.1,21.6-18.2,32.3-27.3.6-.5,1-1.3,1.5-1.9,5.9-3.9,11.9-7.9,17.8-11.8,0,0-.1-.3-.1-.3,3.9-1.9,8.1-3.3,11.7-5.6,34-22.5,69.7-41.8,105.7-60.8,33.6-17.7,66.5-36.9,99-56.7,21.8-13.3,42.4-28.6,63.4-43.3,7.4-5.2,14.3-11.2,21.4-16.8-.5-.6-.9-1.2-1.4-1.7-4.1,3.2-8.2,6.5-12.3,9.7-4.1,3.1-8.4,6-12.6,9-4.1,2.8-8.2,5.6-12.4,8.4-.3-.5-.6-1-.9-1.5,18.1-11.6,32.2-28.1,53.5-36.1,16.3-6.1,30.3-18.3,45.3-27.8h0c.4-.3.8-.5,1.2-.7,0,0,0,0,0,0,.5-.3,1-.7,1.5-1,4.8-2.8,9.6-5.6,14.4-8.4.5-.2,1.1-.4,1.6-.6,1.1-.4,2.2-.7,3.3-1.1,1.6-.9,3.2-1.7,5.1-2.7-29.7-3.6-98.3,7.4-165.3,64.4,5.7-6.5,11.3-13,17-19.5,1.7-.9,3.5-1.5,5-2.6,5.1-3.7,9.8-7.7,15-11.2,30.1-20.5,63-34.5,98.2-43.3,23.3-5.8,46.9-9.3,71-7.6,2.6.2,5.2.6,8.9,1.1-1.9,2.1-2.8,3.1-5,5.6h21.2Z"/>
      <path class="cls-2" d="M705.4,138.3c-.4.8-.9,1.7-2,3.9,20.4-6,39.3-14.9,61.5-11-3.7,2.5-7.2,4-9.6,6.6-9.2,10.1-17.9,20.6-27,30.7-11,12.3-19.9,26.7-35,35.1-5.9,3.3-10.7,5.3-15.4-1.5-.7-1-3.9-1.4-5.1-.7-8.1,5.2-15.9,10.8-23.9,16.1-1.4,1-3.3,1.4-4.9,2,.2-1.8-.2-4.2.7-5.5,8.8-11.8,17.9-23.5,26.8-35.2.7-.9,1.2-1.8,3.2-4.7-3.8,1.5-5.8,2-7.4,3-17.1,10.7-31.5,24.6-44.4,39.9-29.8,35.2-63.2,66-103.4,89.1-8.1,4.7-16.3,6.6-25.9,6-7.9-.5-16.2,1.6-24,3.9-32.2,9.6-64.3,19.8-96.5,29.7-2.2.7-4.8.2-7.3.3,12.8-6,25.2-13.1,38.4-17.6,30-10.3,60.5-19,90.5-29.2,30.9-10.5,56.7-29.2,79.9-51.8,24.7-24,48.7-48.8,74.2-71.9,16.7-15.2,34.7-29.3,56.4-37.3Z"/>
      <path class="cls-4" d="M260.5,567.2c-.7-.3-1.4-.5-2.1-.8-.3-.7-.6-1.3-1-2,25.1-12.6,50-25.8,75.5-37.8,22.5-10.6,45.4-20.5,68.6-29.5,27.5-10.7,55.7-19.7,83.3-30.3,31-11.9,61.6-24.9,88.4-45.1,12.1-9.2,23.6-19.4,35.3-29.1,1.2.2,2.7,1,3.5.6,3.3-1.8,6.3-3.9,9.5-5.9,6.6-4.6,13.4-8.9,19.6-14,2.3-1.9,3.3-5.5,4.8-8.4,3.4-3.5,6.8-7.1,10.1-10.6.5-.4,1-.8,1.5-1.1h0c1.1-1.3,2.1-2.6,3.2-3.9,0,0,0,0,0,0,.3-.3.6-.6.9-1,0,0,0,0,0,0,.7-.7,1.3-1.4,2-2.1,0,0,0,0,0,0,.3-.4.7-.7,1-1.1,0,0,0,0,0,0,.7-.7,1.4-1.4,2-2.1,0,0,0,0,0,0,.4-.4.7-.7,1.1-1.1h0c.4-.3.7-.6,1.1-1h0c6.8-2.3,12.3-9.2,12-15h0c.4-.3.7-.6,1.1-1h0c1-1.6,2.1-3.3,3.1-5h0c.4-.6.7-1.3,1.1-2h0c1-1.4,2-3,3.1-4.5h0c.7-.9,1.4-2,2-3,3.4-7.9,6.9-15.8,10.3-23.8-2.4.3-3.6,1.4-4.5,2.7-4.9,7.3-9.5,14.9-14.7,22-5.7,7.8-12.1,15.2-18.1,22.8,5.2-7.7,10.8-15.1,15.4-23.1,16.8-28.6,33.2-57.4,50.1-86,1.2-2,4.8-3,7.4-3.7.6-.2,2,2.5,3.1,3.8-9.9,23.7-18.8,48-30.1,71.1-19.8,40.7-47.5,75.8-81.9,105.1-25.3,21.6-51.2,42.7-81.9,56.3-15.5,6.9-31,13.7-47,19.1-22.4,7.5-45.4,13.3-67.9,20.2-40.2,12.4-79.8,26.4-117.9,44.5-17.5,8.3-34.9,17-52.4,25.5Z"/>
      <path class="cls-4" d="M705.5,408.8c-10.1,14-19.4,28.5-30.5,41.7-8.7,10.3-19.3,19.1-29.6,28-3.1,2.7-6.2,7.6-12.1,5.3-1-.4-3.3,1-4.2,2.2-7.3,9.6-16.1,17.6-27.3,21.8-23.2,8.6-44,22.7-67.5,30.5-28.1,9.3-56.4,17.8-84.3,27.6-15.8,5.5-31,12.7-46.4,19.3-9.6,4.1-19.3,8-28.8,12.5-4,1.9-7.5,5.1-11.1,7.7-.9.7-1.6,1.8-2.6,2.2-15.3,5.9-30.7,11.7-46,17.5-.6.2-1.3,0-2.3,0,33.3-20,66.4-39.8,99.4-59.7-.2-.4-.3-.8-.5-1.3h-7c-.3-.5-.5-.9-.8-1.4,2.4-1.7,4.7-3.4,7.1-5,25.8-17.1,54.4-26.8,84.7-32.4,3.7-.7,7-3.6,10.5-5.4-.3-1-.6-1.9-.9-2.9-4.5,0-9.1,0-13.6,0,.2-.2.2-.4,0-.6,14.6-1.7,29.3-2.4,43.6-5.5,17.5-3.7,35.4-7.7,51.8-14.6,17.1-7.1,32.6-17.9,48.8-27,1.8-1.4,3.7-2.7,5.5-4.1h0c4.6-2.4,10.1-4,13.6-7.5,14.4-14.6,28-30,42.2-44.8,2-2.1,5.4-2.7,8.2-4Z"/>
      <path class="cls-2" d="M752.3,108.1l5.4,3c-40.7,4.3-82.7.6-118.4,26.8-.3-.7-.6-1.3-.9-2,2.4-2.1,4.6-4.4,7.1-6.3,2.6-1.9,5.6-3.4,8.2-6.4-2.4.4-5,.3-7.1,1.3-18.4,8.8-37.1,17-54.9,26.9-21.6,12.1-42.4,25.7-63.6,38.5-1.3.8-2.8,1.2-5.1.6,1.1-1.2,2-2.7,3.2-3.7,22.2-17.2,42.1-36.7,60.1-58.2,5.4-6.5,12.9-11.2,19-18.2-9.6,2.5-19.7,3.9-28.8,7.9-23.3,10.1-46.6,20.3-68.8,32.4-17.7,9.6-33.7,22.2-50.6,33.3-1,.6-2.4.6-3.6.9,10.6-9,21.2-17.9,31.8-26.9,39-32.9,84.7-52.4,133.8-63.1,28.2-6.1,57.4-6.8,86.3-1.6,3.5.6,7.1,1.2,10.6,1.8,12.1,4.4,24.2,8.7,36.3,13.1Z"/>
      <path class="cls-4" d="M130.4,545.6c2.7-3.4,4.8-7.7,8.3-9.9,9.2-6.1,19-11.3,28.5-17.1,19.9-12,39.2-25.2,59.7-36.1,26.7-14.1,54.3-26.6,81.6-39.4,14.6-6.9,29.3-13.4,44.2-19.5,22.6-9.1,45.4-17.7,68.2-26.3,26.9-10.2,54.1-19.4,80.7-30.4,14.4-5.9,27.8-14.2,41.3-22,15.4-8.9,31.1-17.6,45.3-28.2,16.6-12.3,31.9-26.4,47.3-40.2,9.3-8.3,17.7-17.5,26.6-26.2,1.5-1.5,3.1-2.8,5.6-3.5-.5,1-1,2-1.4,3-3.6,5.2-7.2,10.5-10.9,15.6-10.3,14.4-20.5,28.8-31.4,44-4.8-6.6-9.5-7.2-14.4-3-4.5,3.9-12.3,4.7-11.9,13.2,0,.8-1.8,1.8-3,2.5-15.6,9.1-31.3,18-46.6,27.4-4.2,2.6-6.9,7.8-11.2,9.9-16.1,7.6-32.4,15.2-49.1,21.3-22.4,8.1-45.4,14.9-68.1,22.2-18,5.8-36,11.6-54,17.5-2,.7-3.9,2-5.8,3l.4,2.2c3.6,0,7.4.5,10.9,0,32.7-5.3,64.4-14.8,95.8-25.1,2.9-1,6-1.6,9.4-1-11.1,3.9-22.2,8.1-33.4,11.8-32.1,10.4-64.6,19.9-96.4,31-29,10.1-57.7,21.3-86,33.2-19,8-37.4,17.5-55.4,27.4-24,13.2-47.5,27.4-71.2,41.2-1.1.7-2.4,1.1-3.6,1.7Z"/>
      <path class="cls-2" d="M652.6,287.2c1,0,2.7.4,3-.1,3.1-5,6.7-9.9,8.8-15.3,4.5-11.4,8.2-23.1,12.4-34.6.4-1.1,2.1-1.7,3.1-2.5.5,1.3,1.8,2.8,1.5,3.9-2.2,8.5-4.4,16.9-7,25.3-9.7,31.7-25.9,59.7-47.7,84.4-29.3,33.3-62.5,62.3-101.9,83.1-25.2,13.3-51.6,24.5-77.7,35.9-34.4,15-69.5,28.5-103.5,44.3-23.3,10.9-45.2,24.6-67.7,37-.8.4-1.8.3-2.7.4,27-22.1,56.6-40.2,87.9-55.3,26.4-12.7,53.3-24.1,80.5-35.1,37.2-15.1,74.5-29.8,108-52.5,25.5-17.3,49-36.8,66.6-62.4,12.7-18.5,24.3-37.6,36.4-56.5Z"/>
      <path class="cls-2" d="M534.7,95.5c-15,9.5-29,21.7-45.3,27.8-21.2,8-35.4,24.6-53.5,36.1.3.5.6,1,.9,1.5,4.1-2.8,8.3-5.6,12.4-8.4,4.2-2.9,8.5-5.9,12.6-9,4.2-3.1,8.2-6.4,12.3-9.7.5.6.9,1.2,1.4,1.7-7.1,5.6-14,11.6-21.4,16.8-21,14.7-41.5,30-63.4,43.3-32.5,19.8-65.3,39-99,56.7-36,18.9-71.7,38.3-105.7,60.8-3.6,2.4-7.8,3.8-11.7,5.6,7.6-5.6,14.9-11.4,22.7-16.6,16.4-10.9,32.6-22.3,49.8-32,40.9-23.2,81.8-46.3,120.3-73.3,29.9-21,58.6-43.7,88.4-64.9,22.5-16,47-28.7,73.2-37.9,3.4-1.2,6.7-2.6,10.1-3.9-.5,1.2-1,2.4-1.4,3.6-.5.3-1,.7-1.5,1,0,0,0,0,0,0-.4.2-.8.4-1.2.6,0,0,0,0,0,0Z"/>
      <path class="cls-2" d="M627.8,67.8h-21.2c2.2-2.5,3.1-3.4,5-5.6-3.7-.5-6.3-.9-8.9-1.1-24.1-1.6-47.7,1.8-71,7.6-35.2,8.8-68.2,22.8-98.2,43.3-5.2,3.5-9.9,7.6-15,11.2-1.5,1.1-3.3,1.7-5,2.6,26.1-25.9,56.6-44.7,91.7-55.4,19.9-6,40.4-10.3,60.5-15.5,7.7-2,15.1-5.5,22.9-6.6,9.5-1.3,19.4-1.8,28.9-.8,20.3,2.2,40.5,5.7,60.7,8.6,4.3.6,8.5,1.4,12.7,2.1,9.4,3,18.9,6,28.3,9.2,2.7.9,5.2,2.6,7.8,4,8.8,6.3,17.6,12.6,26.4,18.9-.2.2-.4.5-.7.7-11.7-3.2-23.4-6.3-35.2-9.5-11.1-3-22.1-6.8-33.4-8.9-18.6-3.5-37.2-7.6-56.3-5Z"/>
      <path class="cls-4" d="M235.5,220.2c8.8-9.8,17.6-19.6,26.4-29.4.5-.2,1-.4,1.5-.6,0,0,0,0,0,0,16.8-14.3,33.6-28.6,50.4-42.8,33.6-28.5,72.1-49,111.6-67.9,31.8-15.2,65.8-24.7,100.1-32.5,2.4-.5,4.8-1.2,7.3-1.6,14.1-2.1,28.2-4.1,42.3-6.2-.6,3.8-4.1,5.6-10.9,6.8-31.2,5.6-62.3,11.9-91.5,24.9-14.4,6.4-28.4,13.8-42.6,20.7-1.6.8-3.4,1.2-5.6.7,1.1-1.3,2.2-2.5,4.8-5.5-4.7,1.7-7.7,2.4-10.3,3.8-10.8,5.6-21.5,11.1-32.1,17.1-10.6,6-21.2,12.2-31.3,19-6.1,4.1-10.8,10.2-16.8,14.6-12.9,9.6-26.4,18.5-39.3,28.2-16.8,12.6-33.3,25.7-49.9,38.7-4.9,3.9-9.6,8-14.4,12h0Z"/>
      <path class="cls-2" d="M453.3,339.6c8.3-2.7,16.6-5.3,24.8-8,.3.3.5.6.8.8-1.8,1.3-3.4,2.7-5.3,3.9-26.1,17.1-54.9,28.6-83.5,40.7-26.8,11.4-53.1,24-79.6,36.2-2.6,1.2-4.9,3.3-7.3,4.9-20.9,8.5-41.8,16.9-62.6,25.4-1.4.6-2.8.9-4.2,1.4-.5,0-1,.1-1.5.2-.8.1-1.7.2-2.5.3,0-1.1.1-2.2.2-3.3,0,0,.3,0,.3,0,.4,0,.5,0,.6-.5,17.2-13.1,37.1-21.4,56.5-30.3,41.4-19,83-37.6,124.7-56.1,12.7-5.7,25.8-10.5,38.7-15.7Z"/>
      <path class="cls-2" d="M262.6,362.4c-.5.2-1.1.5-1.6.7-.2-.7-.4-1.3-.6-2,46.5-30.7,92.8-61.8,135.9-97.4,33.6-27.7,66.6-56.2,100.8-83.2,16.6-13.1,35.3-23.7,53-35.3.8-.5,1.8-.6,2.7-.9-8.7,7.8-17.3,15.5-26,23.3-1.5,1.3-2.9,2.7-4.4,4-31.2,25.3-62,51-93.5,75.8-36.1,28.4-72,57.2-111.5,81-18.3,11-36.3,22.5-54.4,33.8,0,0-.3,0-.3,0v.3Z"/>
      <path class="cls-4" d="M727,71.5c-2.6-1.4-5-3.1-7.8-4-9.4-3.2-18.9-6.2-28.3-9.2-23-6.1-45.8-14-69.2-18-26.7-4.5-52.5-15.1-80.2-13-15,1.1-30,2.5-45.4,2.7,6.1-1.6,12.2-3.3,18.3-4.9,5.9-.6,11.7-1.6,17.6-1.6,20.8,0,41.6-.3,62.3,1.2,13.9,1,27.7,4.3,41.3,7.7,15.4,3.8,30.5,8.9,45.8,13.5,3.3.8,6.5,2,9.9,2.3,8.3.8,15.6,2.7,21.5,9.6,3.9,4.5,9.6,7.4,14.5,11.2.3.3-.2,1.7-.3,2.5Z"/>
      <path class="cls-2" d="M635.9,469.2c-16.2,9.2-31.8,19.9-48.8,27-16.4,6.9-34.3,10.9-51.8,14.6-14.3,3-29.1,3.7-43.6,5.5-2,0-4-.4-6,0-5.9,1-8.5-1.1-7.4-7.2,11-2.3,21.9-5.1,33-6.8,52.2-8.2,103.4-18.7,145.2-54.6.7-.6,1.7-1.1,2.5-1.6-2,3-3.7,6.3-6.1,8.9-3.5,3.7-7.6,6.9-11.4,10.2,0,0,0,0,0,0-1.8,1.4-3.7,2.7-5.5,4.1Z"/>
      <path class="cls-2" d="M525.5,46.9c-34.4,7.8-68.3,17.3-100.1,32.5-39.4,18.9-78,39.4-111.6,67.9-3.1.6-6.3,1.2-9.4,1.9,31.6-28.5,66.7-52,104.7-71.2,27.2-13.7,55.5-24.2,85.1-31.1,12.9-3,26.1-4.2,39.2-6.2.7,0,1.4-.1,2.1-.2,1.2,0,2.3-.1,3.5-.2-1.6.7-3.2,1.3-4.8,2.1-2.9,1.4-5.8,3-8.6,4.5Z"/>
      <path class="cls-2" d="M303.5,419.9c14.9-7.2,29.8-14.7,44.9-21.6,6.3-2.9,13-4.8,19.9-6-13.8,7.6-27.5,15.4-41.4,22.8-30.2,16.1-61.1,30.9-90.5,48.3-30.4,18-59.4,38.5-89,57.9-4.8,3.2-9.8,6-14.8,9,17.2-13.6,33.7-28.2,51.7-40.6,24.9-17,50.6-32.7,76.5-48.1,13.6-8.1,28.3-14.5,42.5-21.6Z"/>
      <path class="cls-2" d="M681.4,45.8c-15.2-4.5-30.3-9.6-45.8-13.5-13.6-3.4-27.4-6.7-41.3-7.7-20.7-1.5-41.5-1.1-62.3-1.2-5.9,0-11.7,1-17.6,1.6,9.9-2.6,19.7-6.9,29.7-7.4,21.5-1.2,43.2-1.9,64.6-.1,43.9,3.6,85.1,16.5,121.9,41.7,4.1,2.8,8.2,5.6,12.3,8.4-1.8-.5-3.8-.6-5.3-1.5-20-10.6-39.9-21.3-59.9-31.9-1.8-1-3.9-1.4-6.4-1.1,5.1,3,10.1,6,15.7,9.3-2.4,1.4-4,2.4-5.6,3.4Z"/>
      <path class="cls-2" d="M768.7,198.3c-4.8,36-15.5,70.3-32.3,102.5-12.9,24.7-27.8,48.2-46.9,68.8-1,1.1-2.6,1.6-4,2.4,7.9-12,16.3-23.6,23.6-35.9,24.2-40.8,41.1-84.6,50-131.2,2.3-12.3,1.6-25.1,2.3-37.7,2.4,10.4,4.8,20.8,7.2,31.1Z"/>
      <path class="cls-1" d="M344.9,463.8c4.4-.8,8.8-1.7,13.3-2.5-15.7,13.8-28.4,31.9-51.5,32.4-3.3,0-6.6-2-9.9-3.1,1.4-3,2.1-6.7,4.3-8.9,3.5-3.4,8-5.8,12-8.6,1.2,1,2.6,3,3.5,2.8,8.8-2.3,17.6-4.8,26.3-7.6,1.1-.3,1.4-2.9,2.1-4.5Z"/>
      <path class="cls-4" d="M340.3,281.8c-8.2,4.8-16.2,9.9-24.5,14.5-8.5,4.7-17.2,9.2-25.8,13.6-3.5,1.8-7.2,3.6-10.9,4.6-1.8.5-4-.7-6-1.2.5-1.8.4-4.5,1.6-5.3,10.1-7,20.5-13.7,30.7-20.5,6-1.9,12-3.8,18-5.7h0c5.7,0,11.3,0,17,0Z"/>
      <path class="cls-1" d="M457.5,427.4c-2.7,2.5-5.3,5.3-8.2,7.4-15,10.7-31.7,17.7-49.8,21-3.7.7-7.7-.7-11.6-1.2-.3-.9-.5-1.8-.8-2.6,4.3-3.8,8.6-7.5,12.9-11.3,1.9.5,4.1,1.8,5.7,1.3,14.8-4.3,29.4-9,44.2-13.4,2.4-.7,5.1-.9,7.6-1.3Z"/>
      <path class="cls-4" d="M811,164.1l3.9-9.9c5,10.9,11.2,21.5,14.8,32.9,6.5,20.1,10.1,40.9,9,62.3,0,1.9-.3,3.8-1.1,5.7-2.9-32.2-11.1-62.7-26.7-91Z"/>
      <path class="cls-1" d="M569.7,222.9c-1.2,3.4-1.6,7.5-3.8,10.2-8.9,10.7-19.7,19.2-33.3,23.3-2.4.7-5.1.5-7.7.8-.6-.6-1.2-1.2-1.8-1.7,3.5-5.1,6.9-10.3,10.4-15.4,1.6,0,3.4.2,4.8-.4,6.7-2.9,13.4-5.8,19.8-9.2,4.1-2.1,7.8-5,11.6-7.5Z"/>
      <path class="cls-1" d="M641.4,465.2c3.8-3.4,7.9-6.5,11.4-10.2,2.4-2.6,4.1-5.9,6.1-8.9,16.7-17.2,33.4-34.4,50.1-51.6.3-.3.9-.2,1.4-.3.1,1.8.2,3.6.3,5.4-1.8,3.1-3.5,6.2-5.3,9.3-2.8,1.3-6.2,2-8.2,4-14.2,14.8-27.8,30.2-42.2,44.8-3.5,3.5-9,5.1-13.6,7.5Z"/>
      <path class="cls-2" d="M457.5,427.4c-2.5.4-5.2.5-7.6,1.3-14.7,4.4-29.4,9.1-44.2,13.4-1.6.5-3.8-.8-5.7-1.3,9.5-4.5,18.7-9.7,28.5-13.3,6.9-2.5,14.5-3.3,21.8-3.9,2.3-.2,4.8,2.5,7.2,3.9Z"/>
      <path class="cls-4" d="M804.2,389.5c-1.1,2.8-2.2,5.6-3.5,8.8,1.1.6,2.2,1.2,3.3,1.8-4.5,7.8-8.7,15.6-13.5,22.9-2.8,4.1-6.7,7.5-10.3,10.9-1,.9-2.9.9-4.4,1.3-.6-.6-1.2-1.1-1.8-1.7,9.7-15,19.3-29.9,29-44.9.5.3.9.6,1.4.8Z"/>
      <path class="cls-4" d="M513.6,380.6c35.3-16.1,69-34.7,98.1-60.9-27.6,28.6-62,46.1-98.1,60.9Z"/>
      <path class="cls-2" d="M711.4,508.9c0-9,10.5-19.9,17.5-20,4.6,0,6.7,2.1,5.1,6.6-3,8.2-8.6,13.8-17.3,15.3-1.8.3-3.9-1.4-5.2-1.9Z"/>
      <path class="cls-1" d="M414.1,520.8c2,.5,4,1,5.9,1.4-.9,1.8-1.3,4.3-2.8,5.2-6.7,4.4-13.5,8.8-20.7,12.4-1.7.9-4.9-1.2-7.4-1.9.8-2.4,1.7-4.9,2.5-7.3,0,0,.1-.2.1-.2.3-.4.7-.7,1-1,7.1-2.9,14.2-5.8,21.2-8.6Z"/>
      <path class="cls-4" d="M382.5,144c1.8,12.2-6.5,21.5-17.1,19.5,0-8.2,8.8-18.4,17.1-19.5Z"/>
      <path class="cls-1" d="M519.4,393.4c.5,1.5,1.9,3.6,1.4,4.4-5.4,8.4-13.9,11.8-23.3,13.2-1.1.2-3.2-.9-3.6-1.9-.5-1.2,0-3.2.7-4.4,1-1.6,2.7-2.8,4.1-4.2.3,0,.5-.1.7-.4,0,0,0,0,0,0,.4-.3.7-.6,1.1-.9.3-.2.5-.4.8-.7,7.6,2.1,15.2,0,18.1-5.1Z"/>
      <path class="cls-2" d="M569.7,222.9c-3.9,2.5-7.5,5.4-11.6,7.5-6.5,3.4-13.2,6.3-19.8,9.2-1.4.6-3.2.3-4.8.4,8.2-8.5,17.3-15.9,28.9-19,2.1-.6,4.8,1.2,7.3,1.9Z"/>
      <path class="cls-1" d="M304.4,149.2c3.1-.6,6.3-1.2,9.4-1.9-16.8,14.3-33.6,28.6-50.4,42.8,10.2-10.6,20.5-21.3,30.7-31.9,2.1-1.7,4.2-3.4,6.3-5.1,0,0,0,0,0,0,.3-.3.7-.7,1-1,0,0,0,0,0,0,.4-.3.7-.7,1.1-1,0,0,0,0,0,0,.4-.4.7-.7,1.1-1.1,0,0,0,0,0,0,.4-.4.7-.7,1.1-1.1,0,0,0,0,0,0Z"/>
      <path class="cls-2" d="M315.7,279.8c8.3-8.4,18-12.7,30.1-10.2-1.9,1.9-3.4,4.4-5.7,5.5-5.4,2.6-11.1,4.5-16.7,6.8,0,0,0,0,0,0-2.5-.7-5.1-1.4-7.6-2Z"/>
      <path class="cls-4" d="M839.4,263.3c-.9,16.3-1.7,32.6-2.8,48.9,0,1.4-1.7,2.6-2.6,4-.9-1.6-2.5-3.2-2.5-4.7.2-4.4,1.3-8.7,1.8-13.1,1.3-11.2,2.4-22.4,3.6-33.5,0-.6.3-1.1.4-1.7.7,0,1.4.1,2,.2Z"/>
      <path class="cls-2" d="M344.9,463.8c-.7,1.6-1,4.2-2.1,4.5-8.7,2.8-17.5,5.3-26.3,7.6-.9.2-2.3-1.8-3.5-2.8,10-5.3,19.7-11.4,31.8-9.3Z"/>
      <path class="cls-1" d="M478.3,509.1c-1.1,6.1,1.6,8.2,7.4,7.2,1.9-.3,4,0,6,0,.2.2.2.4,0,.6-13.2,1.4-26.4,2.9-39.6,4.3-.2-.4-.4-.9-.6-1.3,8.9-3.6,17.8-7.2,26.8-10.8Z"/>
      <path class="cls-1" d="M525.5,46.9c2.9-1.5,5.7-3,8.6-4.5,1.5-.8,3.2-1.4,4.8-2.1,12.1-.4,24.1-.8,36.2-1.2-14.1,2-28.2,4.1-42.3,6.2-2.4.4-4.8,1.1-7.3,1.6Z"/>
      <path class="cls-2" d="M284.3,393.4c10.4-5.4,20.8-10.9,31.2-16.3.5.8.9,1.7,1.4,2.5-9.1,5.6-18.1,11.2-27.2,16.7-1.8-1-3.6-2-5.4-2.9Z"/>
      <path class="cls-2" d="M384.4,254.8c.5-9.6,7.7-17.4,14.8-17.8,1,0,2.7.7,2.8,1.3.2,1.5.2,3.7-.6,4.4-5.1,4-10.5,7.6-17,12.1Z"/>
      <path class="cls-1" d="M284.3,393.4c1.8,1,3.6,2,5.4,2.9-7.6,4.2-15.1,8.4-22.7,12.5-1.9,1-3.8,1.8-5.7,2.7-.5-.8-1-1.6-1.5-2.4,8.2-5.3,16.3-10.5,24.5-15.8Z"/>
      <path class="cls-1" d="M326.9,183.4c5.5-.9,6.6,1.1,4.2,6-2.7,5.4-11.7,10.5-17.5,8.6-6.5-2.1-1.3-5.4.1-8.1.2,1.1.3,2.1.5,3.2,4.2-1,8.6-1.7,12.6-3.3.8-.3.1-4.1.1-6.3Z"/>
      <path class="cls-4" d="M539.1,548.3c-13.7,5.1-27.4,10.3-41.1,15.4l-.7-1.9c13.6-5.4,27.2-10.8,40.8-16.2.3.9.7,1.8,1,2.7Z"/>
      <path class="cls-4" d="M752.3,108.1c-12.1-4.4-24.2-8.7-36.3-13.1,5,.8,10,1.6,15,2.2.6,0,1.4-1.1,2.1-1.7,6.3,3.1,12.7,6.2,18.9,9.4.5.3.2,2,.3,3.1Z"/>
      <path class="cls-1" d="M323.3,281.8c5.6-2.2,11.3-4.1,16.7-6.8,2.3-1.1,3.8-3.6,5.7-5.5.4,1.7,1.8,4,1.1,5-1.7,2.7-4.3,4.9-6.5,7.3-5.7,0-11.3,0-17,0Z"/>
      <path class="cls-2" d="M326.9,183.4c0,2.2.6,6-.1,6.3-4,1.6-8.3,2.3-12.6,3.3-.2-1.1-.3-2.1-.5-3.2,3.3-4.4,7-8,13.2-6.5Z"/>
      <path class="cls-2" d="M519.4,393.4c-2.9,5.1-10.6,7.2-18.1,5.1,4.2-2.2,8.2-4.7,12.6-6.4,1.5-.6,3.7.8,5.6,1.3Z"/>
      <path class="cls-2" d="M414.1,520.8c-7.1,2.9-14.2,5.8-21.2,8.6,7.1-2.9,14.2-5.8,21.2-8.6Z"/>
      <path class="cls-1" d="M232.5,442.4c0,1.1,0,2.2-.2,3.3-7.1,2.6-14.1,5.3-21.2,7.9-.2-.4-.4-.8-.5-1.2,7.3-3.3,14.6-6.7,21.9-10Z"/>
      <path class="cls-1" d="M260.5,361.1c.2.7.4,1.3.6,2-9.2,5.3-18.4,10.5-27.5,15.8,9-5.9,18-11.9,27-17.8Z"/>
      <path class="cls-4" d="M710.8,399.5c-.1-1.8-.2-3.6-.3-5.4,0,0,0,0,0,0,.1-.5.2-.9.4-1.4,2.8-3,5.5-6,8.3-9,.2.1.3.2.5.3-2.9,5.1-5.8,10.2-8.7,15.3Z"/>
      <path class="cls-1" d="M315.7,279.8c2.5.7,5.1,1.4,7.6,2-6,1.9-12,3.8-18,5.7,3.5-2.6,6.9-5.1,10.4-7.7Z"/>
      <path class="cls-1" d="M174.6,319.2c-5.9,3.9-11.9,7.9-17.8,11.8,5.9-3.9,11.9-7.9,17.8-11.8Z"/>
      <path class="cls-4" d="M307.5,217.6c5-2.5,9.9-5.1,14.9-7.6.2.4.5.9.7,1.3-4.9,2.8-9.7,5.5-14.6,8.3-.3-.7-.7-1.4-1-2.1Z"/>
      <path class="cls-1" d="M583,221.5c-1.2-2.4-2.7-4.1-2.4-4.9.9-1.7,2.7-2.9,4.1-4.3.9,1,2.7,2.4,2.5,2.9-.9,2-2.4,3.6-4.3,6.4Z"/>
      <path class="cls-1" d="M537.5,93.9c.5-1.2,1-2.4,1.4-3.6,4.3-1.6,8.6-3.3,12.9-4.9-4.8,2.8-9.6,5.6-14.4,8.4Z"/>
      <path class="cls-2" d="M533.7,390.5c1.2-1.4,2.2-3.1,3.6-4.1.5-.3,3,1.1,3,1.3-.7,2.3-1.6,4.5-2.5,6.8-1.4-1.3-2.7-2.6-4.1-3.9Z"/>
      <path class="cls-2" d="M719.2,133.3c-4.6,1.6-9.1,3.3-13.7,4.9,4.6-1.6,9.1-3.3,13.7-4.9Z"/>
      <path class="cls-2" d="M300.5,153.2c-2.1,1.7-4.2,3.4-6.3,5.1,2.1-1.7,4.2-3.4,6.3-5.1Z"/>
      <path class="cls-1" d="M556.8,83.7c-1.1.4-2.2.7-3.3,1.1,1.1-.4,2.2-.7,3.3-1.1Z"/>
      <path class="cls-1" d="M535.5,40.6c-.7,0-1.4.1-2.1.2.7,0,1.4-.1,2.1-.2Z"/>
      <path class="cls-4" d="M620.5,312.3c.2-.4.4-.7.6-1.1-.2.3-.4.7-.6,1,0,0,0,0,0,0Z"/>
      <path class="cls-4" d="M801.5,160.3c-.2-.7-.5-1.5-.7-2.2.2.7.5,1.5.7,2.2Z"/>
      <path class="cls-1" d="M263.5,190.2c-.5.2-1,.4-1.5.6.5-.2,1-.4,1.5-.6Z"/>
      <path class="cls-1" d="M234.9,445.3c.5,0,1-.1,1.5-.2-.5,0-1,.1-1.5.2Z"/>
      <path class="cls-4" d="M719,383.9c.3-.3.7-.7,1-1-.2.4-.4.9-.6,1.3-.2-.1-.3-.2-.5-.3Z"/>
      <path class="cls-2" d="M500.5,399.2c-.4.3-.7.6-1.1.9.4-.3.7-.6,1.1-.9Z"/>
      <path class="cls-2" d="M499.4,400.2c-.2.3-.4.5-.7.4.2-.2.4-.4.7-.4Z"/>
      <path class="cls-2" d="M301.5,152.2c-.3.3-.7.7-1,1,.3-.3.7-.7,1-1Z"/>
      <path class="cls-2" d="M302.5,151.2c-.4.3-.7.7-1.1,1,.4-.3.7-.7,1.1-1Z"/>
      <path class="cls-2" d="M303.5,150.2c-.4.4-.7.7-1.1,1.1.4-.4.7-.7,1.1-1.1Z"/>
      <path class="cls-2" d="M304.5,149.2c-.4.4-.7.7-1.1,1.1.4-.4.7-.7,1.1-1.1Z"/>
      <path class="cls-1" d="M233.4,441.8c0,.4-.2.5-.6.5,0-.3.2-.5.6-.5Z"/>
      <path class="cls-1" d="M710.7,392.9c-.1.5-.2.9-.4,1.4.1-.5.2-.9.4-1.4Z"/>
      <polygon class="cls-4" points="618.4 314.3 618.3 314.4 618.5 314.3 618.4 314.3"/>
      <path class="cls-2" d="M391.8,530.5s-.1.2-.1.2c0,0,.1-.2.1-.2Z"/>
      <path class="cls-2" d="M132.3,530.9c-.1,0-.2.1-.3.2,0,0,.1-.1.2-.2,0,0,.2,0,.2,0Z"/>
      <path class="cls-4" d="M618.5,314.3c.3-.3.7-.7,1-1,0,0,0,0,0,0-.3.3-.7.7-1,1,0,0,0,0,0,0Z"/>
      <path class="cls-4" d="M620.5,312.2c-.3.4-.7.7-1,1.1,0,0,0,0,0,0,.3-.4.7-.7,1-1.1,0,0,0,0,0,0Z"/>
      <polygon class="cls-4" points="235.5 220.2 235.4 220.5 235.5 220.2 235.5 220.2"/>
      <path class="cls-3" d="M621.4,387.3c-3.1,2-6.2,4.2-9.5,5.9-.8.4-2.3-.4-3.5-.6.4-.5.9-1.1,1.3-1.6.3,0,.5-.2.5-.5.8-.7,1.6-1.3,2.4-2,0,0,.2,0,.2,0v-.2c.2-.3.4-.5.7-.8,0,0,.3,0,.3,0v-.3c.2-.2.4-.5.7-.7,0,0,.3,0,.3,0v-.2c.2-.3.4-.6.7-.9.3-.3.5-.5.8-.8,14.1-14.5,28.3-29,42.4-43.5,1.6-1.6,2.7-3.7,4.1-5.6.3-.4.6-.8,1-1.3,0,0,0,0,0,0,6.1-7.6,12.4-15,18.1-22.8,5.2-7.1,9.8-14.6,14.7-22,.9-1.3,2-2.3,4.5-2.7-3.4,7.9-6.9,15.8-10.3,23.8-.7,1-1.4,2-2,3.1,0,0,0,0,0,0-1,1.5-2,3.1-3.1,4.6,0,0,0,0,0,0-.4.7-.7,1.4-1.1,2.1,0,0,0,0,0,0-1,1.7-2.1,3.4-3.1,5.1,0,0,0,0,0,0-.4.4-.7.7-1.1,1.1,0,0,0,0,0,0-4,5-8,10.1-12,15.1,0,0,0,0,0,0-.4.4-.7.7-1.1,1.1,0,0,0,0,0,0-.4.4-.7.7-1.1,1.1,0,0,0,0,0,0-.7.7-1.4,1.4-2,2.1,0,0,0,0,0,0-.3.4-.7.7-1,1.1,0,0,0,0,0,0-.7.7-1.3,1.4-2,2.1,0,0,0,0,0,0-.3.3-.6.6-.9,1,0,0,0,0,0,0-1.1,1.3-2.1,2.6-3.2,3.9,0,0,0,0,0,0-.5.4-1,.8-1.5,1.1-3.4,3.5-6.8,7.1-10.1,10.6-8.2,7.4-16.3,14.9-24.5,22.3Z"/>
      <path class="cls-2" d="M556.8,306c17.3-11.2,34.6-22.3,52-33.5.4.6.8,1.2,1.2,1.8-15.9,13.4-32.7,25.3-51.5,34.2-.5-.8-1.1-1.7-1.6-2.5Z"/>
      <path class="cls-2" d="M726,215.5c-3.5,4.4-6.7,9-10.6,12.8-.6.6-5.6-1.4-6.6-3.2-3.2-5.8,2.3-16.3,8.9-17.6,5.3-1.1,7.4,1.8,8.4,8Z"/>
      <path class="cls-2" d="M779.3,215.2c0-2.1,0-4.2.1-6.3,1.8-15.1,3.6-30.3,5.5-45.5-.4,0-.9,0-1.3-.1.7,7.8,1.4,15.6,2,23.5,0,17.9-2.1,35.3-10.2,51.4-.9-.3-1.8-.6-2.7-.9,2.3-5.5,4.6-11,6.7-16.6.5-1.3,0-3-.1-4.5,0-.4,0-.7,0-1.1Z"/>
      <path class="cls-4" d="M616.1,384.6c-.3.3-.5.5-.8.8.3-.3.5-.5.8-.8Z"/>
      <polygon class="cls-4" points="614.6 386.3 614.7 386.5 614.4 386.5 614.6 386.3"/>
      <path class="cls-4" d="M663.5,334.3c-.3.4-.6.8-1,1.3.3-.4.6-.8,1-1.3Z"/>
      <polygon class="cls-4" points="613.7 387.3 613.8 387.5 613.5 387.5 613.7 387.3"/>
      <polygon class="cls-4" points="612.8 388.3 612.8 388.5 612.6 388.5 612.8 388.3"/>
      <path class="cls-4" d="M610.2,390.5c0,.3-.2.5-.5.5,0-.4.2-.5.5-.5Z"/>
      <path class="cls-2" d="M776.1,327c-9.1,39.9-27.9,75.2-52.7,107.4,6.2-10.4,12.9-20.5,18.6-31.1,5.9-10.9,11.3-22.2,16.1-33.6,4.8-11.4,8.6-23.3,12.8-34.9,0,0,.2,0,.2,0h-.1c.3-.9.7-1.7,1-2.4,1.4-1.8,2.8-3.6,4.2-5.4Z"/>
      <path class="cls-1" d="M776.1,327c-1.4,1.8-2.8,3.6-4.2,5.4,1.6-5,3.1-10.1,4.7-15.1.3,0,.5,0,.8.1-.4,3.2-.8,6.4-1.3,9.6Z"/>
      <polygon class="cls-1" points="770.9 334.7 771.1 334.8 770.9 334.8 770.9 334.7"/>
      <path class="cls-1" d="M779.3,215.2c0,.4,0,.7,0,1.1,0-.2-.2-.5-.3-.7,0,0,.2-.2.2-.3Z"/>
      <path class="cls-1" d="M478.4,225.2c-.7.7-1.3,1.3-2,2,0,0,0,0,0,0,.7-.7,1.3-1.3,2-2,0,0,0,0,0,0Z"/>
      <polygon class="cls-1" points="262.6 362.4 262.7 362.1 263.1 362.2 262.9 362.5 262.6 362.4"/>
      <polygon class="cls-1" points="476.5 227.3 476.4 227.4 476.5 227.3 476.5 227.3"/>
      <path class="cls-1" d="M478.5,225.3c.3-.3.7-.7,1-1,0,0,0,0,0,0-.3.3-.7.7-1,1,0,0,0,0,0,0Z"/>
      <path class="cls-1" d="M534.7,95.5s0,0,0,0,0,0,0,0Z"/>
      <path class="cls-1" d="M536,94.9s0,0,0,0c0,0,0,0,0,0Z"/>
      <path class="cls-1" d="M621.4,387.3c8.2-7.4,16.3-14.9,24.5-22.3-1.6,2.8-2.5,6.5-4.8,8.4-6.2,5.1-13.1,9.4-19.6,14Z"/>
      <path class="cls-1" d="M668.4,341.3c4-5,8-10.1,12-15.1.3,5.8-5.2,12.7-12,15.1Z"/>
      <path class="cls-1" d="M681.4,325.3c1-1.7,2.1-3.4,3.1-5.1-1,1.7-2.1,3.4-3.1,5.1Z"/>
      <path class="cls-1" d="M657.4,353.3c1.1-1.3,2.1-2.6,3.2-3.9-1.1,1.3-2.1,2.6-3.2,3.9Z"/>
      <path class="cls-1" d="M685.4,318.3c1-1.5,2-3.1,3.1-4.6l-3.1,4.6Z"/>
      <path class="cls-1" d="M664.4,345.3c.7-.7,1.4-1.4,2-2.1-.7.7-1.4,1.4-2,2.1Z"/>
      <path class="cls-1" d="M661.5,348.4c.7-.7,1.3-1.4,2-2.1-.7.7-1.3,1.4-2,2.1Z"/>
      <path class="cls-1" d="M688.4,313.8c.7-1,1.4-2,2-3.1-.7,1-1.4,2-2,3.1Z"/>
      <path class="cls-1" d="M684.4,320.3c.4-.7.7-1.4,1.1-2.1-.4.7-.7,1.4-1.1,2.1Z"/>
      <path class="cls-1" d="M656,354.3c.5-.4,1-.8,1.5-1.1-.5.4-1,.8-1.5,1.1Z"/>
      <path class="cls-1" d="M660.6,349.3c.3-.3.6-.6.9-1-.3.3-.6.6-.9,1Z"/>
      <path class="cls-1" d="M663.5,346.3c.3-.4.7-.7,1-1.1-.3.4-.7.7-1,1.1Z"/>
      <path class="cls-1" d="M666.4,343.3c.4-.4.7-.7,1.1-1.1-.4.4-.7.7-1.1,1.1Z"/>
      <path class="cls-1" d="M667.4,342.3c.4-.4.7-.7,1.1-1.1-.4.4-.7.7-1.1,1.1Z"/>
      <path class="cls-1" d="M680.4,326.3c.4-.4.7-.7,1.1-1.1-.4.4-.7.7-1.1,1.1Z"/>
      <path class="cls-1" d="M635.9,469.2c1.8-1.4,3.7-2.7,5.5-4.1-1.8,1.4-3.7,2.7-5.5,4.1Z"/>
    </g>
  </g>
</svg>